<svg width="280" height="89" fill="none" xmlns="http://www.w3.org/2000/svg"><rect y="11.977" width="276" height="77" rx="15" transform="rotate(-2.487 0 11.977)" fill="currentColor" stroke="currentColor"/><path d="M34.82 46.768a3.573 3.573 0 0 1-.447-.64c-.086-.17-.043-.405.128-.704a26.73 26.73 0 0 0 2.176-4.736c.64-1.707.96-3.456.96-5.248 0-2.39-.384-4.394-1.152-6.016-.768-1.664-1.814-3.008-3.136-4.032-1.323-1.066-2.859-1.834-4.608-2.304a24.399 24.399 0 0 0-5.376-.832c-1.878-.085-3.776 0-5.696.256a40.9 40.9 0 0 0-5.44 1.088l-.064.064c.128 7.424.128 14.784 0 22.08-.128 7.254-.064 14.57.192 21.952.213.085.426.128.64.128h.768c1.536.043 3.178.128 4.928.256 1.792.128 3.562.17 5.312.128 1.792 0 3.52-.106 5.184-.32 1.664-.256 3.178-.725 4.544-1.408a9.778 9.778 0 0 0 3.456-2.88c.981-1.28 1.642-2.922 1.984-4.928.256-1.365.298-2.602.128-3.712-.171-1.11-.491-2.112-.96-3.008a12.706 12.706 0 0 0-1.6-2.624 50.128 50.128 0 0 0-1.92-2.56Zm-6.015 10.624a4.058 4.058 0 0 1-1.536 1.152 7.882 7.882 0 0 1-1.856.448c-.64.043-1.302.064-1.984.064a27.965 27.965 0 0 0-1.856-.064l-.128-.064c-.342-.512-.576-1.152-.704-1.92a14.37 14.37 0 0 1-.192-2.368 23.54 23.54 0 0 1 .704-4.672c.81.085 1.642.15 2.496.192.853 0 1.685.107 2.496.32.554.128 1.088.406 1.6.832.512.384.896.832 1.152 1.344.298.726.448 1.536.448 2.432.042.896-.171 1.664-.64 2.304Zm-.064-18.24c-.342.64-.811 1.13-1.408 1.472a5.25 5.25 0 0 1-1.856.576 11.53 11.53 0 0 1-2.112.064 27.87 27.87 0 0 1-2.048-.192c-.384-1.493-.512-2.944-.384-4.352.17-1.408.213-2.602.128-3.584.64-.341 1.429-.49 2.368-.448.981 0 1.898.085 2.752.256.682.17 1.28.448 1.792.832.554.341 1.002.853 1.344 1.536.341.683.405 1.366.192 2.048a8.707 8.707 0 0 1-.768 1.792Zm34.155 6.336c-.17-.725-.405-1.706-.704-2.944a347.039 347.039 0 0 1-.96-4.096c-.341-1.493-.704-3.05-1.088-4.672a153.747 153.747 0 0 0-1.024-4.544 66.513 66.513 0 0 0-.896-3.84 345.971 345.971 0 0 0-.576-2.56c-1.408.128-2.56.213-3.456.256H50.736c-.341 0-.661.021-.96.064a216.387 216.387 0 0 0-2.816 10.304 536.682 536.682 0 0 0-2.368 9.984c-.725 3.2-1.365 6.23-1.92 9.088-.512 2.816-.96 5.312-1.344 7.488a285.92 285.92 0 0 0-.896 5.312c-.213 1.365-.363 2.197-.448 2.496.043.043.085.064.128.064 2.901-.043 5.035-.021 6.4.064 1.365.085 2.219.085 2.56 0h.064c.043-.043.085-.064.128-.064.384-.725.683-1.557.896-2.496.214-.938.406-1.898.576-2.88.214-1.024.406-1.984.576-2.88.214-.938.47-1.75.768-2.432h1.088c.299-.043.555-.064.768-.064h.832c.299 0 .725.043 1.28.128.299.64.576 1.408.832 2.304.256.896.49 1.835.704 2.816.256.981.49 1.942.704 2.88.256.939.512 1.75.768 2.432h.064c1.366.299 2.816.47 4.352.512 1.536.085 2.944 0 4.224-.256v-.064l-4.8-22.4Zm-6.528 4.16c-.81 0-1.621.021-2.432.064-.81 0-1.578-.021-2.304-.064.299-2.176.555-4.203.768-6.08.256-1.877.47-3.434.64-4.672.214-1.237.427-2.048.64-2.432.256-.426.49-.277.704.448.256.726.533 2.112.832 4.16.341 2.048.725 4.907 1.152 8.576Zm38.246 18.624c.725 0 1.237-.043 1.536-.128.299-.085.49-.15.576-.192v-1.28c0-.853-.021-1.706-.064-2.56v-6.08a97.06 97.06 0 0 0 .064-3.584v-5.504c0-1.835-.021-3.648-.064-5.44V22.896c-1.237-.256-2.645-.384-4.224-.384a26.5 26.5 0 0 0-4.608.384c-.043 1.067-.085 2.07-.128 3.008v2.688c0 1.536.022 3.05.064 4.544.085 1.45.128 3.03.128 4.736 0 .725-.043 1.472-.128 2.24-.085.768-.192 1.195-.32 1.28-.043 0-.192-.235-.448-.704a42.372 42.372 0 0 0-.96-1.792c-.341-.725-.725-1.514-1.152-2.368-.426-.896-.832-1.728-1.216-2.496-.384-.81-.725-1.514-1.024-2.112a19.906 19.906 0 0 1-.576-1.216 28.013 28.013 0 0 0-1.024-2.176 18.904 18.904 0 0 0-.768-1.6 44.32 44.32 0 0 0-.704-1.472 23.1 23.1 0 0 1-.832-1.92c0-.085-.235-.17-.704-.256a12.52 12.52 0 0 0-1.536-.192 12.66 12.66 0 0 0-1.792-.128 20.608 20.608 0 0 0-1.28-.064c-.512 0-1.024.021-1.536.064-.47.043-.917.107-1.344.192-.213 2.73-.362 5.547-.448 8.448-.085 2.859-.128 5.76-.128 8.704 0 4.01.022 7.85.064 11.52.086 3.67.128 7.53.128 11.584v4.48c.981 0 1.984.064 3.008.192 1.067.128 2.112.192 3.136.192.47 0 .939-.021 1.408-.064.47-.043.939-.128 1.408-.256a41.715 41.715 0 0 1-.064-2.432v-8.448c.043-1.92.085-3.67.128-5.248.043-1.578.085-2.88.128-3.904.085-1.024.15-1.536.192-1.536.085 0 .192.213.32.64.17.384.341.81.512 1.28l.64 1.92a110.94 110.94 0 0 0 3.52 8.576 378.44 378.44 0 0 1 4.224 9.152c.853 0 1.835.043 2.944.128 1.11.128 2.09.192 2.944.192Zm20.291-22.592-.128.064c-.043 0-.064.022-.064.064v.064c.085.768.128 1.408.128 1.92s-.021 1.024-.064 1.536V50.8c.043.512.107 1.11.192 1.792.213.086.512.15.896.192h1.344c.512-.042.981-.064 1.408-.064.469-.042.832-.042 1.088 0 .128.043.192.235.192.576.043.342.043.726 0 1.152 0 .427-.043.853-.128 1.28a7.029 7.029 0 0 1-.128.832c-.171.597-.427 1.088-.768 1.472a4.098 4.098 0 0 1-1.216.832c-.597.214-1.259.384-1.984.512a6.236 6.236 0 0 1-1.984.064c-.597-.128-1.088-.32-1.472-.576-.811-.64-1.344-1.514-1.6-2.624a22.966 22.966 0 0 1-.512-3.072 88.908 88.908 0 0 1-.256-4.992 65.756 65.756 0 0 1 .064-5.056c.085-1.664.213-3.221.384-4.672.213-1.45.469-2.688.768-3.712.085-.341.192-.682.32-1.024.171-.384.299-.619.384-.704.512-.512 1.109-.768 1.792-.768s1.387.021 2.112.064c.64 0 1.195.213 1.664.64.469.384.875.853 1.216 1.408.384.512.683 1.088.896 1.728.256.598.448 1.11.576 1.536.64.086 1.195.15 1.664.192.469.043.917.064 1.344.064h1.344a18.71 18.71 0 0 1 1.664-.064 26.89 26.89 0 0 1 1.472-.064c.299 0 .491-.064.576-.192l.064-.384c.299-2.602.064-4.843-.704-6.72-.768-1.92-1.92-3.456-3.456-4.608-1.536-1.152-3.371-1.941-5.504-2.368-2.133-.47-4.373-.555-6.72-.256-1.152.17-2.261.427-3.328.768a8.314 8.314 0 0 0-2.88 1.6c-1.237.854-2.133 1.942-2.688 3.264a19.317 19.317 0 0 0-1.088 4.096 44.153 44.153 0 0 0-.448 4.224 144.567 144.567 0 0 0-.192 4.16 156.706 156.706 0 0 0-.064 4.224c.043 1.195.085 2.347.128 3.456.085 1.067.171 2.155.256 3.264.085 1.11.192 2.347.32 3.712.085.853.192 1.707.32 2.56.171.81.32 1.45.448 1.92.512 1.835 1.216 3.37 2.112 4.608.896 1.237 2.197 2.219 3.904 2.944 1.024.427 2.091.704 3.2.832a16.18 16.18 0 0 0 3.52 0 24.117 24.117 0 0 0 3.52-.512 38.013 38.013 0 0 0 3.328-.768c1.621-.597 2.987-1.472 4.096-2.624 1.109-1.152 1.771-2.816 1.984-4.992.427-2.304.597-4.715.512-7.232a91.375 91.375 0 0 0-.512-7.232l-.064-.064h-.128c-.427 0-1.259-.042-2.496-.128a51.447 51.447 0 0 0-3.904-.256 41.724 41.724 0 0 0-4.032.064c-1.237.043-2.133.235-2.688.576Zm44.893 13.568c-2.902.086-5.718.064-8.448-.064-2.731-.17-5.504-.256-8.32-.256l-.064-.064a139.446 139.446 0 0 1-.256-3.84c-.043-1.536.042-2.922.256-4.16.213-.17.618-.277 1.216-.32a28.047 28.047 0 0 1 1.984-.064h2.368c.81-.042 1.536-.15 2.176-.32a52.636 52.636 0 0 1 .064-4.544c.085-1.45.021-2.901-.192-4.352V41.2a123.303 123.303 0 0 0-3.968-.064 58.63 58.63 0 0 1-3.904-.128l-.064-.064c-.299-1.152-.384-2.368-.256-3.648a23.78 23.78 0 0 0 .192-3.84l.064-.064h.192a46.632 46.632 0 0 1 4.224-.192c1.408 0 2.816.021 4.224.064 1.408 0 2.794-.021 4.16-.064a27.115 27.115 0 0 0 4.16-.576v-.064c0-1.493.042-3.008.128-4.544a20.2 20.2 0 0 0-.128-4.544c0-.043-.427-.085-1.28-.128a71.258 71.258 0 0 0-3.392-.064c-1.408 0-3.03.021-4.864.064-1.835.043-3.734.085-5.696.128-1.963.043-3.926.107-5.888.192-1.92.043-3.712.107-5.376.192-.214 3.67-.342 7.317-.384 10.944a458.832 458.832 0 0 0 0 10.88c.042 3.627.106 7.275.192 10.944.085 3.627.128 7.296.128 11.008 4.138.341 8.448.448 12.928.32 4.522-.17 8.96-.234 13.312-.192.341-1.28.533-2.645.576-4.096a47.562 47.562 0 0 0-.064-4.288v-.128Zm34.204 8.512a32.029 32.029 0 0 0-2.368-5.056 92.206 92.206 0 0 0-2.944-4.864 177.554 177.554 0 0 0-3.136-4.672 71.366 71.366 0 0 1-2.944-4.736v-.064h.32c2.048-.128 3.733-.704 5.056-1.728a11.374 11.374 0 0 0 3.264-3.84c1.323-2.218 1.941-4.501 1.856-6.848-.043-2.39-.619-4.565-1.728-6.528-1.109-1.962-2.667-3.605-4.672-4.928-2.005-1.322-4.267-2.048-6.784-2.176-3.115-.341-6.101-.363-8.96-.064-2.859.299-5.483.619-7.872.96.085.555.149 1.621.192 3.2.085 1.536.149 3.413.192 5.632.043 2.176.085 4.587.128 7.232.085 2.603.128 5.248.128 7.936.043 2.645.064 5.227.064 7.744v6.592c0 1.92-.021 3.477-.064 4.672-.043 1.152-.107 1.728-.192 1.728.213-.043.768-.043 1.664 0 .939.043 1.984.043 3.136 0 1.152 0 2.304-.043 3.456-.128 1.195-.085 2.155-.277 2.88-.576a374.98 374.98 0 0 0-.192-3.264 805.297 805.297 0 0 1-.256-4.288 157.969 157.969 0 0 1-.064-4.416c0-1.45.064-2.666.192-3.648l.128.192c.896 1.11 1.792 2.39 2.688 3.84a64.808 64.808 0 0 1 2.496 4.416 141.5 141.5 0 0 1 3.712 7.808h.064c1.92.128 3.797.15 5.632.064a72.315 72.315 0 0 1 4.992-.192h-.064Zm-21.568-35.584c1.493-.597 2.965-.917 4.416-.96 1.451-.085 2.645.299 3.584 1.152.597.47 1.024 1.11 1.28 1.92.256.768.341 1.558.256 2.368-.085.768-.363 1.494-.832 2.176-.427.64-1.045 1.045-1.856 1.216-1.024.17-2.112.235-3.264.192a64.587 64.587 0 0 1-3.2-.192h-.064a15.317 15.317 0 0 1-.192-1.728v-2.112c0-.725-.021-1.43-.064-2.112 0-.725-.021-1.365-.064-1.92Zm34.341-9.216c-1.92.043-3.392.043-4.416 0a85.324 85.324 0 0 0-2.624-.192c-.299 0-.768-.021-1.408-.064-.597-.085-1.003-.107-1.216-.064v.128a103.283 103.283 0 0 0-.576 11.008c.043 3.712.107 7.488.192 11.328.128 3.797.213 7.638.256 11.52.043 3.883-.085 7.744-.384 11.584.427-.128 1.216-.17 2.368-.128a90.79 90.79 0 0 0 3.584.192c1.28.043 2.453.021 3.52-.064 1.109-.043 1.835-.234 2.176-.576a233.96 233.96 0 0 1-.384-11.008 480.677 480.677 0 0 1 0-11.136l.256-11.2c.128-3.712.192-7.402.192-11.072v-.256h-1.536Zm26.545 28.288c.128 0 .192-.042.192-.128a25.465 25.465 0 0 1-.128-2.752c.043-1.067.085-2.112.128-3.136a32.066 32.066 0 0 0 0-2.88c0-.853-.064-1.43-.192-1.728-.469.043-1.045.085-1.728.128a33.86 33.86 0 0 1-2.112.064h-2.24a24.068 24.068 0 0 1-1.984-.192c-.043 0-.085-.021-.128-.064-.384-.683-.619-1.536-.704-2.56-.085-1.024.107-2.09.576-3.2 1.323-.128 2.731-.234 4.224-.32 1.536-.085 3.051-.15 4.544-.192a868.33 868.33 0 0 0 4.416-.256c1.451-.085 2.752-.17 3.904-.256.043-.555.064-1.237.064-2.048v-2.624c0-.938-.021-1.834-.064-2.688v-2.112c-1.195-.298-2.624-.533-4.288-.704a52.176 52.176 0 0 0-5.312-.256 87.147 87.147 0 0 0-5.76.064c-1.92.043-3.755.128-5.504.256-1.707.128-3.243.256-4.608.384-1.365.128-2.411.256-3.136.384v9.152c0 2.688-.021 5.205-.064 7.552v6.72c0 2.09-.021 4.181-.064 6.272v13.696l.064.064c.171.085.683.15 1.536.192.896.043 1.92.064 3.072.064 1.152 0 2.304-.021 3.456-.064a48.982 48.982 0 0 0 3.072-.192c.043-2.432.085-4.97.128-7.616.043-2.688.171-5.376.384-8.064h.064a38.847 38.847 0 0 1 4.032-.448 58.321 58.321 0 0 0 4.16-.512ZM271.153 23.6a6.508 6.508 0 0 0-1.024-.064 14.247 14.247 0 0 0-1.408-.064 57.03 57.03 0 0 0-3.648.128c-1.28.043-2.304.15-3.072.32-.384.853-.789 1.92-1.216 3.2-.427 1.28-.875 2.581-1.344 3.904a81.312 81.312 0 0 1-1.344 3.84c-.427 1.195-.853 2.176-1.28 2.944a90.095 90.095 0 0 1-1.344-3.008 120.905 120.905 0 0 1-1.408-3.776 423.918 423.918 0 0 0-1.28-3.904 51.503 51.503 0 0 1-.896-3.328 4.418 4.418 0 0 0-1.472-.384 9.332 9.332 0 0 0-1.536-.128c-.939 0-1.877.064-2.816.192-.939.128-1.835.192-2.688.192a40.095 40.095 0 0 0 1.728 5.44c.725 1.835 1.472 3.67 2.24 5.504.811 1.835 1.579 3.69 2.304 5.568a44.468 44.468 0 0 1 1.792 5.568v.128c-1.493 3.755-2.987 7.53-4.48 11.328a169.592 169.592 0 0 0-3.904 10.816h.128c.256.043.512.064.768.064h.768c.981 0 2.005-.043 3.072-.128a74.22 74.22 0 0 1 2.944-.064h.832c.256 0 .512.021.768.064a117.294 117.294 0 0 1 4.416-11.072 512.016 512.016 0 0 1 5.12-10.944 420.38 420.38 0 0 0 5.056-11.008 105.227 105.227 0 0 0 4.224-11.264V23.6Z" fill="#fff"/></svg>